HIERARCHY
ROOT Hips
{
	OFFSET 0.000000 71.427986 0.000000
	CHANNELS 6 Xposition Yposition Zposition Xrotation Yrotation Zrotation
	JOINT Pelvis
	{
		OFFSET 0.000000 0.000000 0.000000
		CHANNELS 3 Xrotation Yrotation Zrotation
		JOINT LeftUpLeg
		{
			OFFSET 6.797100 -2.508499 -1.318700
			CHANNELS 3 Xrotation Yrotation Zrotation
			JOINT LeftLeg
			{
				OFFSET 0.069008 -29.241863 0.690200
				CHANNELS 3 Xrotation Yrotation Zrotation
				JOINT LeftFoot
				{
					OFFSET -0.069008 -29.568123 -0.266800
					CHANNELS 3 Xrotation Yrotation Zrotation
					JOINT LeftToeBase
					{
						OFFSET 3.145500 -8.631000 16.059900
						CHANNELS 3 Xrotation Yrotation Zrotation
						End Site
						{
							OFFSET 0.000000 18.501587 0.000000
						}
					}
				}
			}
			JOINT Left_ShortSleeve
			{
				OFFSET 0.265923 -10.480953 1.153800
				CHANNELS 3 Xrotation Yrotation Zrotation
				End Site
				{
					OFFSET 1.725763 19.823879 0.000000
				}
			}
		}
		JOINT RightUpLeg
		{
			OFFSET -6.797100 -2.508499 -1.318700
			CHANNELS 3 Xrotation Yrotation Zrotation
			JOINT RightLeg
			{
				OFFSET -0.082453 -29.241932 0.688000
				CHANNELS 3 Xrotation Yrotation Zrotation
				JOINT RightFoot
				{
					OFFSET 0.082453 -29.568058 -0.264600
					CHANNELS 3 Xrotation Yrotation Zrotation
					JOINT RightToeBase
					{
						OFFSET -3.115300 -8.682800 16.113400
						CHANNELS 3 Xrotation Yrotation Zrotation
						End Site
						{
							OFFSET 0.000000 18.567114 0.000000
						}
					}
				}
			}
			JOINT Right_ShortSleeve
			{
				OFFSET -0.265923 -10.480953 1.153800
				CHANNELS 3 Xrotation Yrotation Zrotation
				End Site
				{
					OFFSET -1.725766 19.823910 0.000000
				}
			}
		}
	}
	JOINT Spine
	{
		OFFSET 0.000000 13.368103 0.470500
		CHANNELS 3 Xrotation Yrotation Zrotation
		JOINT Spine1
		{
			OFFSET 0.147000 13.837402 0.538800
			CHANNELS 3 Xrotation Yrotation Zrotation
			JOINT Spine2
			{
				OFFSET 0.168000 16.242897 -1.435500
				CHANNELS 3 Xrotation Yrotation Zrotation
				JOINT Neck
				{
					OFFSET 0.217200 18.631500 -1.679100
					CHANNELS 3 Xrotation Yrotation Zrotation
					JOINT Head
					{
						OFFSET 0.000000 6.599396 1.385900
						CHANNELS 3 Xrotation Yrotation Zrotation
						JOINT Hat
						{
							OFFSET -0.532200 27.220596 -10.096100
							CHANNELS 3 Xrotation Yrotation Zrotation
							End Site
							{
								OFFSET 0.000000 22.029861 0.000000
							}
						}
						JOINT HairD
						{
							OFFSET -10.777400 17.437393 -1.325900
							CHANNELS 3 Xrotation Yrotation Zrotation
							JOINT HairD1
							{
								OFFSET -3.290299 -11.051193 1.062200
								CHANNELS 3 Xrotation Yrotation Zrotation
								End Site
								{
									OFFSET 0.000000 11.579437 0.000000
								}
							}
						}
						JOINT HairB
						{
							OFFSET -10.777400 17.437393 1.467900
							CHANNELS 3 Xrotation Yrotation Zrotation
							JOINT HairB1
							{
								OFFSET -1.561200 -12.956299 3.590200
								CHANNELS 3 Xrotation Yrotation Zrotation
								End Site
								{
									OFFSET 0.000000 13.534866 0.000000
								}
							}
						}
						JOINT HairA
						{
							OFFSET 9.713100 17.437393 1.467900
							CHANNELS 3 Xrotation Yrotation Zrotation
							JOINT HairA1
							{
								OFFSET 1.561200 -12.956299 3.590200
								CHANNELS 3 Xrotation Yrotation Zrotation
								End Site
								{
									OFFSET 0.000000 13.534866 0.000000
								}
							}
						}
						JOINT HairC
						{
							OFFSET 9.713100 17.437393 -1.325900
							CHANNELS 3 Xrotation Yrotation Zrotation
							JOINT HairC1
							{
								OFFSET 3.290300 -11.051193 1.062200
								CHANNELS 3 Xrotation Yrotation Zrotation
								End Site
								{
									OFFSET 0.000000 11.579437 0.000000
								}
							}
						}
					}
				}
				JOINT LeftShoulder
				{
					OFFSET 5.101800 15.108002 -2.763700
					CHANNELS 3 Xrotation Yrotation Zrotation
					JOINT LeftArm
					{
						OFFSET 9.825497 2.506317 -1.597400
						CHANNELS 3 Xrotation Yrotation Zrotation
						JOINT LeftForeArm
						{
							OFFSET 21.966244 0.000000 0.000000
							CHANNELS 3 Xrotation Yrotation Zrotation
							JOINT LeftHand
							{
								OFFSET 33.879036 0.000000 0.000000
								CHANNELS 3 Xrotation Yrotation Zrotation
								JOINT LeftHandThumb1
								{
									OFFSET 6.715286 -2.359680 3.363841
									CHANNELS 3 Xrotation Yrotation Zrotation
									JOINT LeftHandThumb2
									{
										OFFSET 2.507072 -1.447464 1.447461
										CHANNELS 3 Xrotation Yrotation Zrotation
										JOINT LeftHandThumb3
										{
											OFFSET 2.898338 -1.673355 1.673357
											CHANNELS 3 Xrotation Yrotation Zrotation
											End Site
											{
												OFFSET -0.295959 3.727692 -0.131651
											}
										}
									}
								}
								JOINT LeftHandIndex1
								{
									OFFSET 14.190811 -0.254547 3.840278
									CHANNELS 3 Xrotation Yrotation Zrotation
									JOINT LeftHandIndex2
									{
										OFFSET 3.551727 0.000000 -0.000000
										CHANNELS 3 Xrotation Yrotation Zrotation
										JOINT LeftHandIndex3
										{
											OFFSET 2.894196 0.000000 0.000000
											CHANNELS 3 Xrotation Yrotation Zrotation
											End Site
											{
												OFFSET -1.000603 2.690872 0.366626
											}
										}
									}
								}
								JOINT LeftHandMiddle1
								{
									OFFSET 13.776489 0.000000 0.000000
									CHANNELS 3 Xrotation Yrotation Zrotation
									JOINT LeftHandMiddle2
									{
										OFFSET 3.438232 0.000000 0.000000
										CHANNELS 3 Xrotation Yrotation Zrotation
										JOINT LeftHandMiddle3
										{
											OFFSET 3.691551 0.000000 0.000000
											CHANNELS 3 Xrotation Yrotation Zrotation
											End Site
											{
												OFFSET -1.082298 3.499527 0.457670
											}
										}
									}
								}
								JOINT LeftHandRing1
								{
									OFFSET 13.966164 -0.268127 -3.067488
									CHANNELS 3 Xrotation Yrotation Zrotation
									JOINT LeftHandRing2
									{
										OFFSET 3.162567 0.000000 0.000000
										CHANNELS 3 Xrotation Yrotation Zrotation
										JOINT LeftHandRing3
										{
											OFFSET 3.324348 0.000000 0.000000
											CHANNELS 3 Xrotation Yrotation Zrotation
											End Site
											{
												OFFSET -0.861900 3.184998 0.405154
											}
										}
									}
								}
								JOINT LeftHandPinky1
								{
									OFFSET 13.131393 -0.168503 -5.746925
									CHANNELS 3 Xrotation Yrotation Zrotation
									JOINT LeftHandPinky2
									{
										OFFSET 2.849182 0.000000 0.000000
										CHANNELS 3 Xrotation Yrotation Zrotation
										JOINT LeftHandPinky3
										{
											OFFSET 2.805038 0.000000 0.000000
											CHANNELS 3 Xrotation Yrotation Zrotation
											End Site
											{
												OFFSET -0.882500 2.642609 0.325652
											}
										}
									}
								}
							}
							JOINT Left_Sleeve
							{
								OFFSET 6.592125 -0.646545 0.805568
								CHANNELS 3 Xrotation Yrotation Zrotation
								End Site
								{
									OFFSET -0.000179 20.275787 -0.000000
								}
							}
						}
					}
				}
				JOINT RightShoulder
				{
					OFFSET -5.731700 15.108002 -2.763700
					CHANNELS 3 Xrotation Yrotation Zrotation
					JOINT RightArm
					{
						OFFSET -9.825497 2.506317 -1.597400
						CHANNELS 3 Xrotation Yrotation Zrotation
						JOINT RightForeArm
						{
							OFFSET -21.966242 0.000000 0.000000
							CHANNELS 3 Xrotation Yrotation Zrotation
							JOINT RightHand
							{
								OFFSET -33.879032 0.000000 0.000000
								CHANNELS 3 Xrotation Yrotation Zrotation
								JOINT RightHandThumb1
								{
									OFFSET -6.715286 -2.359680 3.363841
									CHANNELS 3 Xrotation Yrotation Zrotation
									JOINT RightHandThumb2
									{
										OFFSET -2.507072 -1.447464 1.447461
										CHANNELS 3 Xrotation Yrotation Zrotation
										JOINT RightHandThumb3
										{
											OFFSET -2.898338 -1.673355 1.673357
											CHANNELS 3 Xrotation Yrotation Zrotation
											End Site
											{
												OFFSET 0.295959 3.727692 -0.131651
											}
										}
									}
								}
								JOINT RightHandIndex1
								{
									OFFSET -14.190811 -0.254547 3.840278
									CHANNELS 3 Xrotation Yrotation Zrotation
									JOINT RightHandIndex2
									{
										OFFSET -3.551727 0.000000 -0.000000
										CHANNELS 3 Xrotation Yrotation Zrotation
										JOINT RightHandIndex3
										{
											OFFSET -2.894196 0.000000 0.000000
											CHANNELS 3 Xrotation Yrotation Zrotation
											End Site
											{
												OFFSET 1.000603 2.690872 0.366626
											}
										}
									}
								}
								JOINT RightHandMiddle1
								{
									OFFSET -13.776489 0.000000 0.000000
									CHANNELS 3 Xrotation Yrotation Zrotation
									JOINT RightHandMiddle2
									{
										OFFSET -3.438232 0.000000 0.000000
										CHANNELS 3 Xrotation Yrotation Zrotation
										JOINT RightHandMiddle3
										{
											OFFSET -3.691551 0.000000 0.000000
											CHANNELS 3 Xrotation Yrotation Zrotation
											End Site
											{
												OFFSET 1.082298 3.499527 0.457670
											}
										}
									}
								}
								JOINT RightHandRing1
								{
									OFFSET -13.966164 -0.268127 -3.067488
									CHANNELS 3 Xrotation Yrotation Zrotation
									JOINT RightHandRing2
									{
										OFFSET -3.162567 0.000000 0.000000
										CHANNELS 3 Xrotation Yrotation Zrotation
										JOINT RightHandRing3
										{
											OFFSET -3.324348 0.000000 0.000000
											CHANNELS 3 Xrotation Yrotation Zrotation
											End Site
											{
												OFFSET 0.861900 3.184998 0.405154
											}
										}
									}
								}
								JOINT RightHandPinky1
								{
									OFFSET -13.131393 -0.168503 -5.746925
									CHANNELS 3 Xrotation Yrotation Zrotation
									JOINT RightHandPinky2
									{
										OFFSET -2.849182 0.000000 0.000000
										CHANNELS 3 Xrotation Yrotation Zrotation
										JOINT RightHandPinky3
										{
											OFFSET -2.805038 0.000000 0.000000
											CHANNELS 3 Xrotation Yrotation Zrotation
											End Site
											{
												OFFSET 0.882500 2.642609 0.325652
											}
										}
									}
								}
							}
							JOINT Right_Sleeve
							{
								OFFSET -6.592125 -0.646545 0.805568
								CHANNELS 3 Xrotation Yrotation Zrotation
								End Site
								{
									OFFSET 0.000179 20.275787 -0.000000
								}
							}
						}
					}
				}
				JOINT Bind_Right_JacketString
				{
					OFFSET -3.534800 11.969597 7.200700
					CHANNELS 3 Xrotation Yrotation Zrotation
					JOINT Bind_Right_JacketString1
					{
						OFFSET -0.319900 -6.102600 2.794100
						CHANNELS 3 Xrotation Yrotation Zrotation
						End Site
						{
							OFFSET 0.000000 6.719452 0.000000
						}
					}
				}
				JOINT Bind_Left_JacketString
				{
					OFFSET 2.904800 11.969597 7.200700
					CHANNELS 3 Xrotation Yrotation Zrotation
					JOINT Bind_Left_JacketString1
					{
						OFFSET 0.364800 -5.904503 3.186800
						CHANNELS 3 Xrotation Yrotation Zrotation
						End Site
						{
							OFFSET 0.000000 6.719513 0.000000
						}
					}
				}
				JOINT HairE
				{
					OFFSET 5.915200 17.612701 -11.592200
					CHANNELS 3 Xrotation Yrotation Zrotation
					JOINT HairE1
					{
						OFFSET 0.289200 -7.171898 -1.284500
						CHANNELS 3 Xrotation Yrotation Zrotation
						End Site
						{
							OFFSET 0.000000 7.291756 0.000000
						}
					}
				}
				JOINT HairF
				{
					OFFSET -0.864800 17.612701 -11.592200
					CHANNELS 3 Xrotation Yrotation Zrotation
					JOINT HairF1
					{
						OFFSET 0.000000 -14.087097 -2.127501
						CHANNELS 3 Xrotation Yrotation Zrotation
						End Site
						{
							OFFSET 0.000000 14.246841 0.000000
						}
					}
				}
				JOINT HairG
				{
					OFFSET -8.087700 17.612701 -11.592200
					CHANNELS 3 Xrotation Yrotation Zrotation
					JOINT HairG1
					{
						OFFSET -0.293600 -6.081398 -0.910100
						CHANNELS 3 Xrotation Yrotation Zrotation
						End Site
						{
							OFFSET 0.000000 6.156120 0.000000
						}
					}
				}
			}
		}
	}
	JOINT Pouch
	{
		OFFSET 0.000000 4.394501 10.847300
		CHANNELS 3 Xrotation Yrotation Zrotation
		End Site
		{
			OFFSET 0.000000 21.880577 0.000000
		}
	}
	JOINT Bag
	{
		OFFSET -13.229000 4.813004 -0.593300
		CHANNELS 3 Xrotation Yrotation Zrotation
		End Site
		{
			OFFSET 0.000000 21.880577 0.000000
		}
	}
	JOINT OccupyGuyFacialAnim_Joint
	{
		OFFSET 1.000000 -70.206398 -1.655000
		CHANNELS 3 Xrotation Yrotation Zrotation
		End Site
		{
			OFFSET 0.000000 21.880577 0.000000
		}
	}
}
MOTION
Frames: 5
Frame Time: 0.033333
1.417587 48.039742 230.605988 110.672581 58.627783 -142.107686 -0.000001 0.000001 -0.000000 -90.344592 17.894471 11.152406 92.718848 7.452133 -8.559680 -39.084702 -12.224987 30.031123 -0.000000 -0.000002 0.000000 -0.000002 0.000000 -0.000003 -35.253174 -8.111202 -19.369127 47.024910 2.670191 -9.433419 -18.608297 -8.263446 35.549079 -0.000001 -0.000000 0.000000 -0.000001 0.000001 -0.000002 19.730557 -0.357347 1.117187 7.549405 -0.102913 -0.328803 7.546898 -0.247267 -0.320206 12.570319 -8.801593 4.317762 11.406878 9.506258 9.849786 -0.000000 -0.000001 0.000000 -0.000000 -0.000001 0.000000 -0.000000 -0.000001 0.000000 -0.000000 -0.000001 -0.000001 -0.000000 -0.000001 0.000000 -0.000000 -0.000001 -0.000001 -0.000000 -0.000001 0.000000 -0.000000 -0.000001 0.000000 -0.000000 -0.000001 0.000000 0.663809 -6.803580 -7.109859 1.681639 -5.259514 -6.546471 0.000060 -76.933413 0.000037 -2.030676 -1.295215 10.625409 -2.207861 -7.931147 1.966791 -11.097551 5.555776 8.832931 -0.000001 -0.000005 0.000002 -2.693475 -13.153174 -12.039136 0.164455 1.498881 -12.522620 -0.000000 0.000004 0.000001 0.029612 0.639225 -5.324891 0.293884 1.993951 -16.767542 0.000000 0.000004 -0.000002 2.381913 9.588381 -14.950174 0.759926 3.149418 -27.125473 -0.000003 0.000000 -0.000003 8.830266 23.961731 -20.470903 1.378860 0.053099 -37.044170 -0.000002 -0.000002 0.000002 0.000003 0.000001 0.000002 0.601535 11.976715 9.502153 -0.146597 10.506644 41.855280 0.082801 90.661110 -0.083208 -6.325325 9.921005 -15.746919 -5.311503 1.188710 -2.943898 10.406767 -9.129923 -14.316039 0.000001 0.000000 0.000000 -3.544965 10.707921 17.759805 0.356533 -2.201979 18.391792 -0.000004 -0.000001 0.000000 -0.897938 3.285694 12.817385 0.582646 -2.790923 23.579425 -0.000001 0.000001 0.000001 2.326609 -7.889713 18.781475 0.977372 -3.559898 30.696325 -0.000000 -0.000000 -0.000001 6.290966 -19.635201 18.012780 1.201283 -3.911763 34.131596 0.000003 0.000000 -0.000001 -0.000001 -0.000001 0.000000 -0.000000 0.000000 0.000003 0.000001 0.000000 -0.000000 -0.000000 0.000000 0.000003 -0.000000 0.000000 0.000003 -0.000000 0.000000 0.000003 0.000001 0.000000 -0.000000 -0.000000 0.000000 0.000003 -0.000000 0.000000 0.000003 -0.000000 0.000000 0.000003 0.000001 0.000000 -0.000000 -0.000001 0.000001 -0.000000 -0.000001 0.000001 -0.000000 -0.000001 0.000001 -0.000000 
3.047749 49.468445 227.480988 119.731413 56.147283 -152.066772 0.000002 -0.000001 -0.000001 -79.240829 18.097578 5.512046 87.033699 7.001399 -8.452871 -39.974297 -13.233100 31.883101 0.000000 -0.000001 -0.000000 -0.000000 0.000001 -0.000002 -33.023073 -1.937000 -16.494424 53.513368 -2.868578 -10.988606 -6.224762 -3.703769 36.025413 -0.000002 -0.000000 -0.000000 -0.000004 0.000000 -0.000005 18.800365 0.148409 1.484636 7.160270 0.096616 0.001551 7.160672 -0.027868 0.010638 12.671923 -9.935980 5.343952 11.939767 8.356165 11.026932 -0.000001 -0.000001 -0.000001 -0.000001 -0.000001 -0.000001 -0.000001 -0.000001 -0.000002 -0.000001 -0.000001 0.000000 -0.000001 -0.000001 0.000000 -0.000001 -0.000001 0.000000 -0.000001 -0.000001 0.000000 -0.000001 -0.000001 -0.000001 -0.000001 -0.000001 -0.000001 0.665613 -6.591382 -6.870874 1.328421 -7.357877 -2.558272 0.000100 -74.219260 0.000086 -3.366625 -3.190614 10.753872 -2.198645 -7.893361 1.982371 -11.075351 5.614693 8.813508 -0.000002 -0.000000 -0.000000 -2.719645 -13.083379 -12.189241 0.168705 1.517836 -12.683659 0.000003 -0.000004 0.000003 0.031387 0.658072 -5.482037 0.299727 2.013177 -16.934307 0.000003 -0.000002 0.000002 2.398479 9.574257 -15.092304 0.768345 3.165774 -27.278203 -0.000000 0.000001 -0.000001 8.859973 23.900473 -20.599668 1.387694 0.064786 -37.165679 0.000001 -0.000002 -0.000001 0.000003 0.000002 -0.000002 0.590217 12.157525 9.653800 10.178578 9.440090 43.960276 0.000006 76.305227 -0.000003 -6.860171 5.639697 -11.708467 -5.298999 0.586199 -2.808704 10.603613 -10.318927 -13.395449 0.000000 0.000002 0.000003 -3.882948 9.076683 21.472808 0.520406 -2.643916 22.266721 -0.000000 -0.000000 0.000002 -1.019080 2.365694 17.020526 0.807883 -3.258021 27.846306 0.000001 -0.000001 -0.000003 2.677042 -7.744921 22.622754 1.224246 -3.945355 34.466828 -0.000002 0.000000 -0.000002 6.972783 -18.324892 21.678952 1.453171 -4.258850 37.666116 0.000001 0.000001 -0.000001 -0.000001 -0.000000 -0.000000 0.000001 -0.000002 0.000003 0.000001 -0.000001 0.000001 0.000001 -0.000002 0.000003 0.000001 -0.000002 0.000003 0.000001 -0.000002 0.000003 0.000001 -0.000001 0.000002 0.000001 -0.000002 0.000003 0.000001 -0.000002 0.000003 0.000001 -0.000002 0.000003 0.000001 -0.000001 0.000002 0.000002 -0.000001 -0.000001 0.000002 -0.000001 -0.000001 0.000002 -0.000001 -0.000001 
4.187033 50.577873 224.347473 128.414318 51.667905 -160.953517 -0.000001 0.000002 -0.000003 -68.467920 17.962173 -0.505260 81.232533 5.087286 -7.968932 -39.340155 -13.972943 34.257224 -0.000000 0.000000 -0.000000 0.000000 -0.000002 -0.000001 -36.872626 3.496710 -13.542284 67.142214 3.092929 -10.110670 4.389093 0.508986 26.669995 -0.000001 0.000000 0.000002 -0.000000 -0.000004 -0.000000 18.205164 -0.401626 2.010888 6.803043 -0.052046 0.385881 6.801992 -0.161131 0.391959 12.198791 -10.334268 6.515781 11.862474 8.542358 11.699783 -0.000000 0.000001 -0.000000 -0.000000 0.000001 -0.000000 -0.000000 0.000001 0.000001 -0.000000 0.000001 0.000000 -0.000001 0.000000 0.000000 -0.000000 0.000001 0.000000 -0.000001 0.000000 0.000000 -0.000000 0.000001 -0.000000 -0.000000 0.000001 -0.000000 0.663282 -5.949040 -6.254369 -4.203884 -11.482636 2.353485 0.000051 -73.502125 0.000046 -4.139801 -3.621274 14.140213 -2.087053 -7.429594 2.173270 -10.799446 6.335941 8.574608 -0.000002 -0.000003 0.000001 -3.013800 -12.224321 -14.024912 0.225004 1.749282 -14.659097 -0.000000 -0.000003 -0.000001 0.057379 0.888888 -7.409410 0.375798 2.247738 -18.980370 -0.000001 -0.000001 -0.000003 2.592956 9.399622 -16.834755 0.875074 3.364352 -29.151862 -0.000004 -0.000001 0.000002 9.199923 23.148727 -22.171513 1.498219 0.206686 -38.656357 -0.000002 -0.000001 0.000001 -0.000001 -0.000003 0.000003 0.557307 12.792408 10.055107 18.874080 11.319807 46.436195 -0.000042 55.937323 0.000048 -3.131889 -0.037900 -3.559201 -5.279837 -0.116979 -2.650538 10.886202 -11.702469 -12.316022 0.000000 0.000001 -0.000000 -4.063774 7.181115 25.782378 0.749082 -3.144342 26.793246 -0.000001 -0.000000 0.000004 -1.044044 1.294665 21.923101 1.114099 -3.780236 32.831797 -0.000003 0.000000 -0.000001 3.036887 -7.563920 27.102484 1.543957 -4.373607 38.872345 0.000002 0.000000 0.000001 7.552027 -16.792910 25.905625 1.773816 -4.643487 41.795789 -0.000000 -0.000001 0.000000 -0.000001 -0.000000 0.000000 0.000001 0.000001 -0.000002 0.000001 0.000001 -0.000001 0.000001 0.000001 -0.000001 0.000001 0.000001 -0.000001 0.000001 0.000001 -0.000002 0.000001 0.000001 -0.000001 0.000001 0.000001 -0.000001 0.000001 0.000001 -0.000001 0.000001 0.000001 -0.000002 0.000001 0.000001 -0.000001 -0.000001 0.000002 -0.000003 -0.000001 0.000002 -0.000003 -0.000001 0.000002 -0.000003 
4.871357 51.596233 221.295776 135.679249 45.009106 -167.986372 0.000000 0.000000 0.000000 -57.669384 17.334588 -6.337884 74.732569 0.884065 -7.320929 -37.050003 -14.493310 37.634800 0.000001 0.000002 -0.000000 0.000000 0.000000 -0.000000 -44.532447 4.904395 -11.092841 82.514375 9.070051 -8.377383 6.625343 2.701467 17.917096 -0.000002 -0.000001 0.000001 -0.000000 -0.000001 -0.000002 18.145193 -1.659563 2.853931 6.712312 -0.472576 0.673787 6.705975 -0.595512 0.677216 11.140392 -10.338509 7.777764 11.097119 9.054660 11.897368 0.000000 0.000000 0.000000 0.000000 0.000000 0.000000 0.000000 0.000000 -0.000000 0.000000 0.000000 -0.000000 0.000000 0.000000 -0.000000 0.000000 0.000000 -0.000000 0.000000 0.000000 -0.000000 0.000000 0.000000 0.000000 0.000000 0.000000 0.000000 0.643681 -4.825830 -5.081209 -11.760413 -20.158103 8.075877 -0.000007 -71.833045 -0.000022 -2.225009 -4.354092 18.737687 -1.906067 -6.652559 2.491549 -10.323341 7.536667 8.171766 0.000001 -0.000001 0.000002 -3.401446 -10.777521 -17.075970 0.337027 2.131750 -17.965599 0.000002 0.000001 -0.000000 0.118168 1.272750 -10.635001 0.521691 2.633656 -22.405473 0.000000 0.000000 -0.000001 2.885919 9.101569 -19.746562 1.068061 3.688522 -32.288763 -0.000003 0.000000 -0.000002 9.676003 21.890543 -24.773076 1.691264 0.437560 -41.151244 0.000003 0.000000 0.000001 0.000001 0.000001 -0.000001 0.518307 13.484396 10.470216 27.276499 14.246711 49.693987 -0.000012 39.597930 0.000016 4.181397 -2.867830 8.884154 -5.252805 -0.895855 -2.474777 11.266179 -13.227742 -11.111778 -0.000000 -0.000001 0.000000 -4.003205 5.118771 30.542133 1.047838 -3.675748 31.812955 -0.000004 0.000002 -0.000003 -0.927566 0.127280 27.355075 1.505247 -4.325272 38.361836 0.000003 -0.000001 0.000001 3.374471 -7.356400 32.060273 1.935705 -4.817886 43.758700 -0.000004 -0.000001 -0.000001 7.931823 -15.119904 30.534675 2.160647 -5.041467 46.375939 0.000001 0.000003 -0.000001 0.000001 -0.000000 0.000001 0.000000 -0.000002 -0.000000 0.000002 -0.000001 0.000001 0.000000 -0.000002 0.000003 0.000000 -0.000002 0.000003 0.000000 -0.000002 -0.000000 0.000002 -0.000001 0.000001 0.000000 -0.000002 0.000003 0.000000 -0.000002 0.000003 0.000000 -0.000002 -0.000000 0.000002 -0.000001 0.000001 0.000000 0.000000 0.000000 0.000000 0.000000 0.000000 0.000000 0.000000 0.000000 
5.257064 52.588394 218.244110 140.482580 37.268569 -172.824878 0.000002 0.000001 -0.000000 -46.917437 16.394271 -10.858705 67.063353 -4.952114 -6.612900 -33.770098 -14.727370 41.600459 0.000001 0.000000 0.000000 -0.000001 -0.000000 -0.000001 -56.315080 6.800527 -10.861422 99.591535 8.703094 -5.367638 2.303727 -0.346932 14.288944 -0.000000 -0.000003 -0.000002 0.000000 0.000001 -0.000001 18.330326 -3.139187 4.248198 6.722571 -0.988369 0.972461 6.706113 -1.146497 0.974648 9.582060 -10.191425 8.883390 9.617703 9.184112 11.737730 0.000002 0.000001 -0.000002 0.000002 0.000001 -0.000002 0.000002 0.000001 -0.000003 0.000002 0.000001 -0.000003 0.000004 0.000000 -0.000003 0.000002 0.000001 -0.000003 0.000004 0.000000 -0.000003 0.000002 0.000001 -0.000002 0.000002 0.000001 -0.000002 0.582828 -3.348309 -3.531998 -18.057200 -31.934881 13.222211 0.000005 -67.750545 -0.000002 0.808937 -6.368145 23.662338 -1.677665 -5.622737 2.910674 -9.665451 9.113079 7.632105 0.000004 -0.000003 -0.000002 -3.716411 -8.859787 -21.081905 0.518808 2.626634 -22.342544 0.000001 0.000001 -0.000000 0.231590 1.774208 -14.903842 0.749781 3.129534 -26.940025 0.000000 -0.000002 0.000002 3.211324 8.701016 -23.591835 1.350278 4.100268 -36.442170 0.000001 -0.000001 -0.000001 10.132998 20.235832 -28.167232 1.961760 0.729641 -44.453207 0.000002 -0.000002 0.000002 0.000001 -0.000003 0.000003 0.526918 13.364470 10.381000 37.427500 14.018685 53.518770 -0.000006 37.766305 -0.000005 7.870068 -4.051124 19.650507 -5.217302 -1.725417 -2.286697 11.749217 -14.841612 -9.816123 0.000003 0.000000 0.000002 -3.648553 2.998602 35.615612 1.416317 -4.210823 37.167157 -0.000002 0.000000 0.000004 -0.641556 -1.074755 33.149097 1.978144 -4.861649 44.261747 0.000003 -0.000001 0.000001 3.665717 -7.137344 37.336444 2.393526 -5.252704 48.971220 0.000006 0.000000 -0.000003 8.049126 -13.398879 35.420442 2.606760 -5.430091 51.261383 -0.000001 0.000004 -0.000001 0.000001 -0.000001 0.000001 -0.000000 -0.000001 -0.000000 0.000001 -0.000001 -0.000000 -0.000000 -0.000001 -0.000003 -0.000000 -0.000001 -0.000003 -0.000000 -0.000001 -0.000000 0.000001 -0.000001 -0.000000 -0.000000 -0.000001 -0.000003 -0.000000 -0.000001 -0.000003 -0.000000 -0.000001 -0.000000 0.000001 -0.000001 -0.000000 0.000002 0.000001 -0.000000 0.000002 0.000001 -0.000000 0.000002 0.000001 -0.000000 
